# xmcd CD database file
#
# Track frame offsets:
#	150
#	16155
#	30917
#	48601
#	59105
#	75885
#	88035
#	102548
#	118923
#	134598
#	151314
#	166463
#	182161
#	193111
#	212161
#	227761
#	244374
#	261024
#	274977
#	289506
#	304646
#
# Disc length: 4279 seconds
#
# Revision: 0
# Processed by: cddbd v1.5.2PL0 Copyright (c) Steve Scherf et al.
# Submitted via: CDex 1.70beta3
#
DISCID=2f10b515
DTITLE=中塚武 - Disney piano jazz "HAPPINESS" Deluxe Edition
DYEAR=2014
DGENRE=Jazz
TTITLE0=It's A Small World
TTITLE1=Can You Feel The Love Tonight
TTITLE2=Beauty And The Beast
TTITLE3=Main Street Electrical Parade
TTITLE4=Part Of Your World
TTITLE5=Bibbidi-Bobbidi-Boo
TTITLE6=Once Upon A Dream
TTITLE7=Let It Go
TTITLE8=When She Loved Me
TTITLE9=If I Didn't Have You
TTITLE10=Heigh-Ho
TTITLE11=When You Wish Upon A Star
TTITLE12=Supercalifragilisticexpialidocious
TTITLE13=Under The Sea
TTITLE14=I See The Light
TTITLE15=A Whole New World
TTITLE16=Chim Chim Cher-ee
TTITLE17=Alice In Wonderland
TTITLE18=A Spoonful Of Sugar
TTITLE19=Winnie The Pooh
TTITLE20=Let It Go (In Crystal Christmas)
EXTD=YEAR: 2014
EXTT0=
EXTT1=
EXTT2=
EXTT3=
EXTT4=
EXTT5=
EXTT6=
EXTT7=
EXTT8=
EXTT9=
EXTT10=
EXTT11=
EXTT12=
EXTT13=
EXTT14=
EXTT15=
EXTT16=
EXTT17=
EXTT18=
EXTT19=
EXTT20=
PLAYORDER=
